<?xml version="1.0" standalone="no"?>
<!DOCTYPE svg PUBLIC "-//W3C//DTD SVG 20010904//EN"
 "http://www.w3.org/TR/2001/REC-SVG-20010904/DTD/svg10.dtd">
<svg version="1.0" xmlns="http://www.w3.org/2000/svg"
 width="593.000000pt" height="593.000000pt" viewBox="0 0 593.000000 593.000000"
 preserveAspectRatio="xMidYMid meet">
<metadata>
Created by potrace 1.14, written by Peter Selinger 2001-2017
</metadata>
<g transform="translate(0.000000,593.000000) scale(0.100000,-0.100000)"
fill="#000000" stroke="none">
<path d="M2919 4575 c-2 -2 -24 -6 -47 -10 -102 -15 -283 -88 -346 -139 -14
-12 -43 -34 -64 -50 -113 -89 -198 -232 -228 -386 -4 -19 -7 -374 -8 -787 l-1
-753 215 0 c1263 -2 1393 -1 1400 11 12 19 11 1467 -1 1519 -6 25 -13 56 -15
68 -14 73 -97 207 -179 288 -163 162 -341 234 -586 240 -76 1 -139 1 -140 -1z
m238 -132 l32 -5 -31 -39 c-43 -54 -44 -102 -2 -135 16 -13 38 -24 48 -24 18
0 18 1 1 20 -10 11 -15 26 -11 36 6 16 8 16 25 0 15 -13 21 -14 27 -5 4 7 2
15 -4 17 -24 8 -11 34 25 49 79 32 163 -11 163 -84 0 -26 -12 -45 -61 -95 -85
-87 -100 -137 -59 -203 47 -76 181 -77 209 -2 25 67 -67 120 -106 61 -12 -18
-11 -24 7 -47 l21 -26 -23 4 c-33 6 -59 42 -54 74 2 14 5 29 5 33 2 16 79 88
94 88 9 0 18 -13 22 -30 8 -37 30 -39 47 -3 20 41 61 47 94 15 38 -38 56 -85
44 -116 -10 -27 -47 -42 -81 -33 -18 5 -18 3 -7 -11 7 -9 17 -20 23 -24 11 -8
-17 -33 -55 -49 -19 -8 -21 -12 -10 -19 8 -5 18 -6 22 -4 13 8 9 -2 -13 -40
-23 -39 -21 -81 6 -122 10 -16 15 -38 12 -60 -6 -41 23 -84 56 -84 13 0 17 3
11 8 -6 4 -15 17 -18 30 -6 18 -1 29 24 52 18 17 41 30 51 30 16 0 19 -8 19
-51 0 -44 -4 -54 -35 -82 -45 -41 -59 -88 -41 -132 13 -31 13 -34 -7 -40 -19
-5 -17 -8 18 -21 57 -21 67 -33 52 -64 -7 -14 -21 -26 -32 -27 -11 -2 -14 0
-7 3 17 8 15 41 -2 47 -8 3 -24 -3 -36 -13 -41 -36 5 -99 64 -88 26 5 26 5 26
-64 l0 -68 -40 20 c-22 11 -48 19 -58 18 -12 -2 -16 3 -14 17 6 39 2 69 -13
92 -22 33 -35 29 -35 -11 0 -22 -9 -45 -25 -64 -29 -34 -85 -59 -85 -38 0 19
-32 45 -67 55 -58 17 -124 -38 -108 -89 13 -40 79 -36 69 4 -6 27 18 31 40 7
12 -14 12 -26 -4 -85 -26 -106 -6 -145 100 -194 91 -41 138 -82 95 -82 -8 0
-15 -4 -15 -10 0 -5 5 -10 10 -10 20 0 49 -39 43 -58 -7 -27 -42 -41 -72 -30
-32 11 -46 -3 -31 -32 11 -20 10 -21 -12 -15 -56 17 -72 56 -39 92 26 27 16
36 -20 18 -41 -22 -58 -19 -90 16 -45 48 -35 99 20 99 23 0 23 -1 8 -18 -22
-24 -21 -39 3 -45 29 -8 52 15 48 48 -3 32 -39 62 -81 69 -39 7 -87 -35 -88
-77 l0 -32 -17 25 c-9 14 -33 41 -53 61 l-37 36 28 16 c30 18 60 72 60 108 0
31 -39 109 -55 109 -9 0 -11 -12 -8 -44 3 -24 0 -60 -7 -80 -12 -38 -55 -86
-77 -86 -27 0 -20 -20 25 -68 26 -28 64 -69 84 -92 29 -32 42 -40 58 -35 17 5
19 9 9 21 -9 11 -9 18 -1 26 9 9 12 8 12 -3 0 -8 14 -27 30 -42 57 -55 51
-113 -13 -111 -29 1 -34 -2 -30 -17 4 -15 -1 -19 -23 -20 -59 -3 -94 17 -94
53 0 17 2 17 24 3 22 -14 25 -14 40 0 19 20 21 39 4 52 -27 21 -48 21 -85 2
-21 -11 -55 -24 -77 -30 -42 -11 -42 -13 5 -38 58 -31 47 -39 -58 -39 -72 -1
-93 2 -80 10 10 5 29 7 42 4 13 -3 26 -2 30 3 8 13 -5 19 -55 25 -24 3 -57 15
-73 26 -43 33 -97 48 -158 45 -56 -3 -79 -13 -165 -74 -80 -57 -153 -48 -177
21 -13 36 50 77 96 62 18 -6 18 -7 0 -26 -17 -19 -17 -20 1 -33 20 -15 45 -10
63 13 18 22 -7 63 -56 90 -37 21 -46 35 -42 68 1 6 -6 17 -14 24 -13 11 -15 8
-15 -18 0 -32 -15 -51 -22 -29 -2 6 -4 61 -4 120 1 106 2 109 29 133 l28 24
-20 21 c-21 23 -19 45 2 32 13 -8 57 -12 57 -5 0 2 -11 13 -25 24 -43 33 -32
94 27 151 32 31 122 77 151 77 9 0 17 5 17 11 0 7 -20 10 -55 7 -30 -1 -55 0
-55 4 0 25 115 73 168 69 30 -2 32 0 20 18 -7 11 -31 27 -55 36 -33 13 -43 22
-44 41 -1 23 -3 34 -9 52 -1 4 -2 10 -2 13 1 3 -20 19 -46 35 -73 46 -112 84
-112 109 0 59 -49 21 -53 -40 -1 -21 -8 -40 -14 -43 -10 -3 -13 17 -13 77 l0
81 35 0 c52 0 115 -32 115 -59 0 -6 5 -11 10 -11 18 0 24 32 12 64 -11 27 -9
35 8 59 31 41 36 112 12 173 -10 28 -19 68 -18 88 1 41 -1 42 -26 19 -17 -15
-18 -15 -18 11 0 37 16 63 48 80 35 18 69 5 78 -29 5 -20 9 -23 20 -14 8 6 14
19 14 28 0 10 14 22 35 30 22 8 50 33 79 70 25 32 59 64 75 71 17 7 31 16 31
21 0 4 12 9 28 11 40 6 222 6 259 1z m-441 -97 c-4 -26 -34 -45 -70 -44 -20 1
-36 6 -36 13 0 16 44 35 69 30 12 -2 21 0 21 6 0 5 4 9 9 9 5 0 8 -6 7 -14z
m829 -107 c-2 -3 -25 -7 -50 -7 -42 -2 -45 -1 -35 17 5 11 10 29 10 41 0 20 3
19 39 -12 22 -18 38 -35 36 -39z m-1120 -149 c-17 -19 -17 -20 1 -26 79 -25
104 -52 104 -113 0 -33 -48 -81 -80 -81 -37 0 -70 22 -70 47 0 12 5 23 10 23
6 0 10 -4 10 -9 0 -13 30 -22 50 -16 10 3 20 17 23 31 6 34 -23 60 -64 56 -28
-3 -29 -2 -23 25 11 41 47 108 52 94 2 -7 -4 -21 -13 -31z m1285 -235 c0 -75
0 -75 -24 -69 -29 7 -79 -23 -72 -42 3 -8 1 -14 -4 -14 -12 0 -30 34 -30 57 0
27 55 84 74 77 9 -3 13 -11 10 -16 -4 -6 -1 -9 7 -6 7 2 17 23 22 46 4 23 10
42 13 42 2 0 4 -34 4 -75z m-1193 -251 c28 -31 33 -42 30 -71 -5 -35 -14 -50
-60 -95 -31 -32 -101 -78 -117 -78 -5 0 -10 24 -10 53 l0 53 46 0 c39 0 51 5
70 28 28 32 31 62 7 88 -20 23 -56 23 -78 1 -16 -16 -16 -18 6 -36 19 -15 20
-20 9 -27 -23 -14 -55 13 -58 48 -4 44 26 72 79 72 35 0 47 -6 76 -36z m1193
-140 c0 -34 -4 -53 -10 -49 -16 10 -10 105 6 105 2 0 4 -25 4 -56z m-84 -415
c-31 -24 -33 -42 -7 -68 17 -17 26 -18 53 -10 18 5 34 9 35 9 2 0 3 -45 3
-100 0 -63 -4 -100 -10 -100 -6 0 -30 10 -53 21 -23 12 -43 21 -44 21 -2 -1
-22 9 -45 22 -74 41 -103 109 -66 153 8 10 5 13 -11 13 -13 0 -26 -11 -36 -30
-21 -40 -36 -39 -25 2 13 42 47 77 73 73 31 -4 57 -16 57 -26 0 -4 11 3 25 16
13 14 36 25 51 25 l27 0 -27 -21z m44 -353 c0 -1 9 -26 20 -55 11 -30 17 -58
14 -62 -3 -5 -25 -9 -49 -9 l-45 0 21 39 c13 25 19 51 16 70 -4 22 -2 28 9 24
8 -3 14 -6 14 -7z m-874 -67 c10 -11 14 -25 10 -36 -5 -13 -9 -14 -15 -5 -13
22 -58 24 -73 4 -10 -15 -28 -19 -85 -21 -40 -1 -73 0 -73 3 0 10 103 58 135
63 16 3 31 6 33 8 10 10 54 -1 68 -16z m587 -33 c7 -18 -1 -26 -27 -25 -12 0
-15 3 -8 6 6 2 12 11 12 19 0 18 16 18 23 0z"/>
<path d="M2936 4395 c-40 -27 -67 -75 -69 -125 -2 -46 -13 -52 -24 -12 -10 38
-10 44 -2 69 13 37 -20 15 -51 -34 -22 -34 -28 -55 -27 -93 2 -49 2 -50 -15
-27 -10 12 -18 30 -18 39 0 9 -4 19 -9 22 -10 7 -61 -49 -62 -67 0 -7 -2 -19
-4 -28 -1 -9 6 -36 16 -60 l19 -44 -30 35 c-17 19 -30 32 -31 30 -13 -103 -1
-168 43 -216 29 -32 -1 -38 -38 -8 -37 30 -44 30 -44 -1 0 -35 27 -84 64 -118
l31 -28 -32 5 c-17 2 -37 7 -43 11 -7 5 -9 -2 -4 -22 4 -15 11 -29 16 -31 4
-2 8 -10 8 -17 0 -7 21 -27 47 -44 43 -29 45 -31 19 -31 l-27 0 17 -29 c18
-30 58 -58 102 -71 26 -8 26 -8 -8 -10 l-35 -1 34 -29 c19 -16 37 -29 40 -28
27 3 61 -4 57 -11 -3 -5 0 -11 7 -14 19 -7 107 2 129 14 54 29 17 -48 -60
-127 -70 -70 -88 -71 -82 -6 1 20 -2 23 -19 17 -12 -3 -21 -2 -21 4 0 17 -58
52 -92 55 -18 2 -48 -3 -66 -11 -27 -11 -31 -17 -23 -27 9 -11 3 -16 -31 -25
-48 -12 -66 -25 -91 -61 -26 -37 -21 -56 25 -106 36 -39 40 -48 30 -65 -10
-16 -9 -19 6 -19 10 0 23 5 30 12 9 9 12 9 12 -3 0 -40 -74 -55 -100 -20 -17
24 -30 18 -30 -15 0 -13 -6 -24 -12 -24 -22 0 -65 -44 -75 -75 -14 -42 0 -84
44 -131 54 -57 120 -87 199 -87 57 -1 67 2 94 28 41 39 43 103 4 142 l-26 26
-19 -32 c-20 -33 -39 -41 -39 -15 0 8 -4 13 -9 10 -5 -4 -21 -2 -34 3 -32 13
-44 48 -23 69 14 14 17 14 34 -1 37 -34 110 -10 134 43 8 20 19 29 29 27 39
-10 4 57 -48 93 -33 22 -40 66 -14 80 17 9 21 8 21 -5 0 -8 7 -15 15 -15 8 0
15 4 15 9 0 14 40 25 51 14 11 -11 20 -65 19 -111 -1 -48 -15 -78 -49 -103
-38 -28 -38 -38 -5 -75 38 -43 84 -160 76 -196 -3 -11 49 -48 67 -48 24 0 41
20 41 48 0 14 -20 62 -45 109 -40 74 -57 118 -39 100 4 -3 21 0 38 7 17 7 33
13 36 14 52 9 112 66 130 125 23 72 50 107 119 152 73 47 95 68 109 106 15 39
2 51 -47 44 -22 -3 -41 -2 -41 2 0 5 10 9 22 10 12 1 50 16 85 34 89 45 122
23 68 -47 -34 -45 -32 -97 3 -75 18 11 72 121 72 147 0 32 -18 42 -90 51 -64
8 -65 8 -90 55 -14 26 -33 57 -42 68 -10 11 -18 25 -18 30 0 6 -4 10 -9 10
-22 0 -35 91 -17 115 12 16 13 15 14 -13 0 -18 4 -37 9 -44 4 -7 8 -16 8 -20
0 -3 4 -10 9 -15 5 -4 6 4 2 20 -4 16 -1 37 6 50 12 22 14 28 17 47 2 16 40
-7 76 -46 43 -45 76 -52 91 -20 14 31 -9 88 -55 130 -17 17 -31 38 -31 47 0
14 -6 17 -27 13 -14 -3 -38 0 -52 5 -26 10 -69 19 -105 20 -15 1 -16 4 -6 15
6 8 14 30 16 48 11 72 71 198 95 198 5 0 9 7 9 16 0 31 -107 -6 -133 -46 -15
-25 -23 -25 -30 1 -5 17 -8 19 -26 8 -23 -15 -39 -47 -35 -71 1 -10 -2 -18 -7
-18 -5 0 -9 7 -9 15 0 19 -16 20 -23 2 -3 -7 -3 -36 0 -63 2 -27 5 -61 7 -76
2 -25 29 -57 48 -58 4 0 4 15 1 34 -6 37 8 54 27 31 7 -8 19 -15 26 -15 8 0
14 -4 14 -10 0 -5 -7 -10 -15 -10 -9 0 -12 -6 -9 -15 8 -19 -52 -46 -108 -48
-37 -2 -41 -7 -31 -35 3 -7 -2 -21 -11 -31 -19 -21 -21 -52 -4 -49 7 2 13 -4
14 -12 0 -8 2 -23 2 -32 3 -27 15 -22 30 11 14 31 82 104 90 96 3 -3 -4 -15
-16 -28 -32 -35 -59 -107 -56 -154 1 -24 -2 -43 -6 -43 -19 0 -70 53 -89 93
-35 73 -23 150 33 212 37 40 37 44 1 110 -65 118 -58 275 18 388 l19 27 -33
-2 c-18 -1 -46 -12 -63 -23z"/>
<path d="M3310 3587 c0 -7 11 -29 25 -50 23 -33 30 -37 70 -37 24 0 54 4 67 9
40 15 65 -2 63 -42 -1 -19 -5 -40 -9 -46 -10 -16 21 -62 38 -55 9 3 13 24 14
62 0 31 1 62 2 67 9 42 -11 68 -57 71 -21 2 -69 5 -107 8 -38 3 -74 10 -79 15
-15 15 -27 14 -27 -2z"/>
<path d="M401 2076 c-10 -32 -82 -303 -85 -321 -1 -5 -5 -16 -9 -22 -5 -7 -6
-13 -3 -13 2 0 1 -13 -4 -30 l-9 -30 49 0 c49 0 60 9 60 51 0 10 3 19 8 20 4
0 29 1 55 2 47 2 48 2 58 -35 10 -37 11 -38 59 -38 59 0 61 -23 -20 270 -5 19
-10 38 -10 42 -1 4 -6 22 -11 40 -6 18 -12 44 -15 58 -7 33 -5 32 -63 35 -48
3 -51 2 -60 -29z m76 -158 c10 -89 10 -91 -20 -92 -27 -2 -28 0 -21 34 9 45
15 82 16 98 2 24 21 -6 25 -40z"/>
<path d="M680 2103 c-13 -3 -16 -34 -15 -223 l0 -220 121 0 c134 0 131 -2 130
65 l-1 40 -73 0 c-39 0 -73 2 -73 5 -1 3 -2 76 -3 162 -1 86 -5 160 -9 165 -9
8 -51 12 -77 6z"/>
<path d="M1044 2100 c-32 -13 -72 -66 -85 -113 -11 -40 -15 -155 -6 -187 16
-59 20 -70 28 -70 5 0 9 -6 9 -14 0 -39 101 -73 162 -55 26 7 36 4 67 -20 l37
-29 12 36 c10 34 9 39 -11 57 -20 18 -21 22 -9 48 38 79 21 251 -30 310 -38
43 -117 60 -174 37z m104 -114 c19 -25 30 -126 17 -167 -6 -19 -7 -19 -32 1
-21 16 -28 18 -35 8 -12 -21 -9 -45 7 -52 19 -7 19 -23 0 -23 -34 0 -56 42
-60 112 -3 73 6 113 32 133 25 19 50 15 71 -12z"/>
<path d="M1421 2101 c-7 -5 -21 -38 -27 -66 -5 -23 -46 -181 -50 -195 -3 -8
-5 -15 -5 -15 1 0 -8 -33 -19 -72 -11 -40 -20 -78 -20 -83 0 -7 18 -10 47 -8
43 3 47 5 57 38 11 34 13 35 56 34 67 -2 72 -3 66 -13 -4 -5 -2 -21 4 -35 8
-23 15 -26 55 -26 49 0 55 11 35 65 -5 14 -12 36 -14 48 -2 12 -19 76 -36 142
-18 66 -37 136 -42 155 -9 34 -11 35 -54 36 -24 0 -48 -2 -53 -5z m67 -219 c8
-47 8 -51 -12 -54 -29 -6 -46 1 -41 15 3 7 7 26 10 42 3 17 8 37 10 45 2 8 4
22 5 30 2 23 17 -21 28 -78z"/>
<path d="M1683 2103 c-9 -3 -12 -63 -13 -225 l0 -220 116 4 116 3 28 33 c14
18 27 40 28 50 7 71 -5 114 -37 133 -19 12 -19 13 1 39 36 49 28 133 -16 169
-15 13 -194 23 -223 14z m151 -99 c20 -7 21 -47 2 -63 -7 -6 -25 -10 -40 -9
-23 2 -26 7 -26 40 0 34 3 38 24 38 13 0 31 -3 40 -6z m14 -168 c16 -9 15 -49
0 -64 -7 -7 -27 -12 -45 -12 -32 0 -33 1 -33 44 0 43 0 44 33 42 19 -2 39 -6
45 -10z"/>
<path d="M2100 2103 c-14 -3 -59 -157 -116 -390 l-12 -53 49 0 c45 0 49 2 55
28 3 15 7 32 9 37 3 13 92 12 105 -1 5 -5 11 -21 13 -34 4 -22 9 -25 56 -28
47 -3 52 -1 48 15 -3 10 -29 108 -58 218 -29 110 -53 201 -55 203 -3 5 -78 9
-94 5z m48 -145 c0 -7 4 -29 7 -48 14 -73 12 -83 -18 -84 -26 -2 -28 1 -24 29
8 54 24 115 30 115 2 0 4 -6 5 -12z"/>
<path d="M2351 2100 c-4 -3 -7 -103 -7 -222 l0 -218 133 0 133 0 0 50 0 50
-83 0 -83 0 0 43 1 42 69 1 c68 1 85 10 80 42 -1 6 -2 21 -3 32 -1 18 -8 20
-75 20 l-73 0 1 33 1 32 80 0 79 0 1 48 c1 26 -4 48 -9 48 -37 4 -239 3 -245
-1z"/>
<path d="M2669 2101 c-12 -5 -15 -44 -14 -221 l0 -215 123 -3 c67 -1 122 1
123 5 7 55 5 93 -5 94 -6 1 -33 3 -61 4 -27 2 -57 3 -65 4 -13 1 -15 24 -15
149 1 81 -2 156 -5 166 -7 20 -51 29 -81 17z"/>
<path d="M3199 2102 c-15 -3 -21 -17 -45 -112 -2 -8 -15 -58 -29 -110 -14 -52
-27 -102 -30 -111 -2 -9 -8 -34 -14 -55 -15 -55 -16 -54 38 -54 48 0 49 1 55
35 5 23 13 35 24 36 85 6 87 6 98 -31 10 -33 13 -35 62 -38 29 -2 52 -1 52 2
0 3 -4 16 -10 31 -5 14 -12 36 -14 48 -4 21 -39 156 -73 282 -9 33 -20 64 -24
69 -8 9 -62 14 -90 8z m56 -204 c8 -34 13 -64 12 -64 -3 -3 -41 -6 -53 -5 -7
1 -6 23 4 71 9 38 17 68 20 66 2 -3 10 -33 17 -68z"/>
<path d="M3438 2091 c-2 -9 -4 -108 -3 -221 l0 -205 125 0 125 0 0 50 0 50
-70 2 c-38 0 -72 2 -75 2 -3 1 -5 75 -5 166 0 140 -2 165 -15 166 -8 0 -29 2
-47 3 -22 2 -33 -2 -35 -13z"/>
<path d="M3740 2103 c-13 -3 -15 -34 -15 -221 l0 -217 41 -3 41 -3 -1 136 c-1
74 2 135 7 135 4 0 7 -6 8 -12 0 -7 2 -20 4 -28 1 -8 6 -33 9 -55 4 -22 12
-69 19 -105 l12 -65 37 -3 c40 -3 43 0 52 78 3 19 10 60 17 90 7 30 13 65 13
77 1 12 4 25 8 28 3 4 6 -42 6 -102 0 -189 -4 -173 41 -173 l39 0 0 220 c0
158 -3 220 -12 221 -91 10 -125 -1 -127 -42 -1 -10 -2 -22 -3 -26 -1 -5 -8
-45 -15 -90 -7 -46 -17 -81 -21 -78 -4 2 -10 26 -13 52 -4 26 -9 59 -12 73 -3
14 -8 43 -11 65 -4 22 -8 42 -9 44 -5 4 -96 8 -115 4z"/>
<path d="M4220 2071 c-9 -34 -82 -307 -100 -377 l-8 -32 51 2 c45 1 50 3 54
26 5 35 17 44 65 45 45 1 67 -18 68 -57 0 -15 9 -18 51 -18 48 0 51 1 46 23
-9 43 -109 412 -112 416 -2 2 -27 4 -54 6 -51 3 -51 3 -61 -34z m84 -188 c3
-13 7 -27 10 -32 12 -19 -42 -36 -60 -18 -5 4 13 101 23 127 5 14 13 -7 27
-77z"/>
<path d="M4498 2102 c-15 -3 -16 -26 -16 -223 l1 -221 96 4 c111 4 138 17 168
83 27 58 25 225 -2 279 -32 64 -62 80 -152 81 -43 0 -85 -1 -95 -3z m151 -116
c33 -34 30 -187 -4 -212 -10 -8 -29 -14 -42 -14 -23 0 -23 1 -23 118 0 65 3
121 6 125 9 9 46 -1 63 -17z"/>
<path d="M4834 2098 c-4 -6 -8 -374 -5 -426 1 -9 15 -12 48 -10 l48 3 0 218
c0 141 -3 217 -10 218 -35 5 -77 3 -81 -3z"/>
<path d="M5003 2103 c-10 -4 -13 -58 -13 -224 l0 -219 45 0 45 0 1 38 c0 20 0
73 0 116 -1 44 1 77 4 75 8 -9 88 -173 91 -187 5 -29 28 -42 70 -42 l44 0 -2
222 -3 223 -42 0 c-49 1 -46 11 -45 -132 0 -51 -2 -93 -4 -93 -3 0 -28 48 -56
108 -28 59 -51 108 -52 109 -3 5 -73 10 -83 6z"/>
<path d="M5434 2086 c-8 -26 -93 -343 -100 -375 -2 -13 -6 -29 -7 -35 -1 -6
17 -12 45 -14 47 -3 47 -3 57 35 10 37 11 38 56 37 66 -2 65 -2 65 -27 0 -13
5 -28 12 -35 13 -13 98 -17 98 -4 0 4 -12 50 -26 102 -14 52 -27 102 -29 110
-24 98 -56 215 -61 219 -3 3 -27 6 -55 6 -40 1 -50 -3 -55 -19z m63 -122 c-3
-3 -2 -16 3 -29 5 -13 11 -41 15 -63 5 -35 3 -40 -17 -45 -34 -9 -40 4 -27 64
15 73 17 79 25 79 4 0 5 -3 1 -6z"/>
<path d="M1944 1482 c-26 -3 -31 -7 -27 -23 3 -10 13 -19 23 -19 16 0 18 -9
17 -75 -1 -72 7 -101 21 -78 4 6 7 43 6 82 -1 61 1 71 16 71 10 0 20 9 23 19
5 21 -21 29 -79 23z"/>
<path d="M2970 1480 c-33 -7 -40 -40 -7 -40 22 0 23 -2 22 -80 -1 -61 2 -80
12 -80 13 0 15 13 14 108 0 45 3 52 20 52 12 0 19 7 19 19 0 21 -36 30 -80 21z"/>
<path d="M3848 1482 c-40 -3 -48 -6 -48 -23 0 -13 6 -19 18 -17 15 3 17 -6 17
-80 0 -68 3 -82 16 -82 13 0 15 13 14 80 -2 71 0 80 16 80 22 0 29 10 20 30
-4 11 -19 14 -53 12z"/>
<path d="M4361 1402 c1 -48 6 -95 11 -104 11 -23 61 -24 79 -2 15 18 21 182 7
190 -13 8 -18 -16 -21 -91 -2 -64 -4 -70 -24 -73 -25 -4 -24 -7 -26 115 0 26
-6 44 -14 47 -11 5 -13 -12 -12 -82z"/>
<path d="M619 1473 c-6 -47 -3 -131 6 -142 7 -11 7 -13 -1 -8 -14 8 -11 -30 4
-45 13 -13 15 -6 12 47 -1 26 3 31 26 33 15 1 32 10 39 19 16 22 12 82 -6 94
-17 11 -79 12 -80 2z m66 -43 c9 -15 -14 -40 -31 -33 -22 8 -18 43 5 43 11 0
23 -5 26 -10z"/>
<path d="M755 1468 c-4 -12 -25 -100 -39 -160 -5 -21 -3 -28 9 -28 8 0 15 8
15 19 0 12 9 20 25 24 21 3 29 -1 41 -26 12 -22 18 -26 24 -16 5 7 4 21 -1 31
-5 10 -8 18 -5 18 2 0 1 15 -4 33 -5 17 -14 51 -20 75 -10 41 -35 57 -45 30z
m34 -95 c1 -7 -6 -13 -14 -13 -16 0 -20 26 -8 57 6 16 8 15 14 -7 4 -14 7 -31
8 -37z"/>
<path d="M864 1458 c-17 -48 -6 -75 37 -90 32 -11 39 -35 13 -45 -10 -4 -22 1
-29 10 -16 22 -35 22 -35 0 1 -53 77 -75 98 -29 19 43 -2 96 -38 96 -15 0 -30
18 -30 36 0 12 35 2 46 -13 12 -17 13 -17 20 1 10 27 -8 51 -44 54 -24 3 -32
-1 -38 -20z"/>
<path d="M985 1457 c-21 -33 -5 -69 42 -91 29 -14 33 -19 23 -31 -17 -21 -37
-19 -50 5 -13 25 -30 17 -25 -11 7 -33 25 -49 56 -49 60 0 66 94 7 121 -37 16
-49 39 -20 39 11 0 22 -5 24 -11 2 -6 11 -10 21 -8 14 3 15 7 4 29 -18 35 -61
39 -82 7z"/>
<path d="M1100 1381 l0 -99 40 -4 c49 -4 65 4 56 27 -5 13 -14 16 -35 12 -25
-5 -30 -3 -34 18 -4 22 -1 25 28 25 39 0 47 7 35 30 -6 12 -17 16 -33 13 -18
-4 -26 0 -30 16 -5 22 3 25 51 21 16 -1 22 4 22 19 0 18 -6 21 -50 21 l-50 0
0 -99z"/>
<path d="M1223 1378 c2 -112 19 -137 27 -41 l5 58 21 -55 c12 -30 28 -56 37
-58 14 -3 16 11 16 97 0 79 -3 101 -13 101 -10 0 -13 -14 -12 -55 1 -30 0 -55
-3 -55 -4 0 -16 24 -27 53 -12 28 -29 53 -37 55 -14 3 -16 -11 -14 -100z"/>
<path d="M1375 1460 c-29 -32 -30 -128 -2 -157 23 -25 68 -30 85 -10 6 7 12
31 14 52 3 38 2 40 -29 43 -27 3 -31 1 -26 -17 3 -12 12 -21 20 -21 25 0 8
-25 -20 -28 -23 -3 -27 1 -33 32 -10 54 2 86 30 86 13 0 26 -7 30 -15 8 -21
26 -19 26 3 -1 49 -61 69 -95 32z"/>
<path d="M1499 1478 c0 -2 -1 -47 -2 -100 l-2 -96 30 -4 c17 -2 40 -2 53 0 32
5 25 37 -8 39 -14 0 -30 1 -35 2 -6 1 -11 10 -12 20 -1 15 6 21 30 23 44 4 52
38 9 38 -18 0 -32 6 -36 16 -8 21 -8 22 33 26 23 3 35 10 37 21 2 14 -6 17
-47 17 -27 0 -49 -1 -50 -2z"/>
<path d="M1621 1380 c0 -77 3 -100 14 -100 9 0 13 12 11 40 -2 28 1 40 10 40
13 0 36 -33 40 -59 3 -18 28 -34 32 -20 2 5 -3 27 -12 48 -13 33 -13 41 -2 50
14 12 15 68 2 89 -4 7 -27 12 -51 12 l-44 0 0 -100z m77 41 c-2 -9 -13 -17
-26 -19 -18 -3 -22 1 -22 21 0 21 4 23 25 19 17 -3 25 -10 23 -21z"/>
<path d="M1761 1466 c-23 -27 -9 -69 31 -95 22 -14 34 -29 31 -37 -7 -19 -39
-18 -47 1 -9 24 -36 19 -31 -6 6 -33 25 -49 55 -49 34 0 53 22 52 60 -1 33
-17 54 -50 64 -12 4 -22 14 -22 22 0 19 36 18 44 -2 3 -8 11 -12 16 -9 12 8 3
46 -14 57 -18 12 -53 9 -65 -6z"/>
<path d="M2039 1473 c0 -5 -2 -50 -2 -101 -2 -77 0 -92 13 -90 11 2 14 14 12
41 -5 51 21 50 44 -3 18 -40 44 -61 44 -35 0 19 -22 68 -35 77 -7 5 -6 8 1 8
21 0 36 51 23 82 -10 25 -17 28 -55 28 -24 0 -44 -3 -45 -7z m77 -44 c8 -13
-13 -29 -38 -29 -11 0 -16 7 -15 20 1 22 41 29 53 9z"/>
<path d="M2205 1470 c-3 -5 -3 -14 0 -20 3 -5 1 -10 -4 -10 -6 0 -10 -3 -9 -7
1 -5 -1 -21 -5 -38 -4 -16 -9 -40 -12 -53 -2 -13 -7 -32 -10 -43 -4 -13 -2
-19 9 -19 9 0 16 7 16 15 0 7 7 18 16 23 24 13 54 3 54 -19 0 -11 7 -19 16
-19 11 0 13 6 9 19 -3 11 -8 29 -10 41 -2 12 -6 29 -9 38 -3 9 -10 36 -16 60
-10 40 -31 55 -45 32z m31 -84 c3 -19 0 -26 -11 -26 -16 0 -19 17 -9 45 8 20
14 15 20 -19z"/>
<path d="M2303 1380 c0 -75 3 -100 13 -100 9 0 14 19 16 58 l3 57 23 -62 c17
-43 28 -60 38 -56 21 8 20 203 -1 203 -11 0 -14 -12 -12 -55 2 -30 2 -55 0
-55 -6 0 -47 94 -45 103 1 4 -6 7 -16 7 -17 0 -19 -10 -19 -100z"/>
<path d="M2445 1463 c-8 -17 -9 -26 -6 -58 0 -8 19 -24 42 -35 33 -17 38 -24
29 -36 -17 -20 -37 -17 -50 6 -6 11 -15 18 -21 15 -27 -17 12 -83 46 -77 34 7
54 32 53 68 -1 27 -7 36 -37 51 -20 10 -38 19 -40 20 -2 2 2 10 9 19 12 14 15
13 31 -8 17 -22 18 -22 25 -4 10 27 -8 51 -43 54 -22 2 -33 -2 -38 -15z"/>
<path d="M2559 1463 c-1 -10 0 -22 1 -28 1 -5 3 -41 3 -79 1 -44 6 -71 14 -73
8 -3 11 7 9 31 -3 32 -1 37 23 42 40 10 51 23 51 63 0 47 -14 61 -62 61 -29 0
-38 -4 -39 -17z m71 -43 c0 -19 -21 -32 -36 -22 -5 4 -9 13 -8 20 1 6 2 16 3
21 2 17 41 -1 41 -19z"/>
<path d="M2696 1461 c-12 -13 -18 -38 -19 -73 -2 -69 21 -108 63 -108 47 0 68
46 62 138 -4 53 -72 81 -106 43z m73 -43 c16 -44 -1 -98 -30 -98 -32 0 -52 92
-24 112 20 15 46 8 54 -14z"/>
<path d="M2824 1380 c-1 -79 2 -100 14 -100 10 0 13 10 10 38 -2 25 1 37 10
36 26 -2 32 -4 30 -11 -3 -18 23 -63 36 -63 12 0 13 6 4 33 -6 17 -14 36 -19
41 -4 5 -1 16 7 24 13 13 15 49 5 100 -1 1 -23 2 -49 2 l-48 0 0 -100z m76 40
c0 -15 -7 -20 -25 -20 -18 0 -25 5 -25 20 0 15 7 20 25 20 18 0 25 -5 25 -20z"/>
<path d="M3117 1473 c-6 -13 0 -183 7 -190 9 -10 78 -5 89 6 5 5 9 25 9 43 -1
18 -1 53 -1 76 0 24 -5 50 -12 58 -12 14 -85 20 -92 7z m83 -39 c0 -21 -22
-42 -40 -37 -11 3 -17 9 -14 14 3 5 0 9 -6 9 -6 0 -8 5 -5 10 6 10 65 14 65 4z
m-2 -97 c3 -13 -4 -17 -27 -17 -29 0 -41 17 -25 33 12 12 49 0 52 -16z"/>
<path d="M3262 1428 c19 -48 25 -73 27 -130 1 -10 7 -18 15 -18 10 0 13 11 11
38 -2 32 5 57 43 151 3 8 -1 12 -13 10 -10 -2 -24 -20 -31 -39 l-12 -35 -16
38 c-9 20 -23 37 -31 37 -12 0 -11 -9 7 -52z"/>
<path d="M3422 1380 c0 -71 3 -100 12 -100 7 0 13 16 14 37 4 57 17 59 41 9
11 -25 28 -46 36 -46 15 0 10 23 -14 68 -6 12 -5 24 5 37 17 23 18 67 2 83 -7
7 -31 12 -54 12 l-43 0 1 -100z m76 41 c-2 -9 -13 -17 -26 -19 -18 -3 -22 1
-22 21 0 21 4 23 25 19 17 -3 25 -10 23 -21z"/>
<path d="M3553 1381 c-1 -110 0 -111 67 -101 48 7 48 35 0 35 -29 0 -36 4 -38
23 -3 18 2 22 25 23 15 1 31 1 36 0 4 0 7 8 7 19 0 16 -7 20 -35 20 -28 0 -35
4 -35 20 0 18 11 25 34 21 20 -4 45 11 39 25 -3 9 -20 14 -52 14 l-48 0 0 -99z"/>
<path d="M3675 1383 c0 -68 4 -98 13 -101 8 -2 12 13 13 55 l1 58 25 -57 c38
-84 51 -76 55 33 2 50 0 96 -3 101 -14 22 -24 -2 -24 -55 0 -31 -3 -53 -7 -51
-5 3 -8 9 -8 14 0 5 -5 21 -12 37 -13 31 -15 38 -17 53 0 6 -9 10 -18 10 -16
0 -18 -11 -18 -97z"/>
<path d="M3922 1381 l-2 -99 27 -3 c49 -7 73 1 73 22 0 15 -6 20 -22 19 -46
-4 -57 0 -55 20 1 11 6 20 12 21 5 1 21 2 34 2 14 1 25 9 27 20 2 13 -5 17
-31 17 -19 0 -35 6 -38 14 -8 20 2 26 40 26 26 0 33 4 33 20 0 17 -7 20 -48
20 l-49 0 -1 -99z"/>
<path d="M4043 1380 c0 -84 3 -100 16 -101 68 -5 94 21 94 94 1 75 -21 107
-72 107 l-38 0 0 -100z m72 50 c4 -6 8 -29 10 -51 2 -31 -1 -42 -18 -54 -30
-21 -37 -11 -37 56 0 52 2 59 19 59 11 0 23 -5 26 -10z"/>
<path d="M4229 1443 c-2 -72 1 -156 5 -161 3 -2 22 -4 42 -4 47 0 67 24 58 67
-5 29 -7 66 -2 82 1 4 -1 18 -6 31 -6 18 -15 22 -52 22 l-44 0 -1 -37z m77
-15 c-6 -40 -47 -47 -53 -10 -2 18 2 22 26 22 18 0 28 -5 27 -12z m2 -92 c3
-12 -4 -16 -27 -16 -23 0 -29 4 -28 19 2 24 50 22 55 -3z"/>
<path d="M4501 1463 c-7 -15 -8 -43 -2 -75 0 -3 17 -12 37 -18 25 -8 34 -16
30 -27 -3 -8 -6 -17 -6 -19 0 -14 -38 -1 -46 16 -5 11 -14 16 -21 12 -8 -5 -8
-15 2 -40 11 -26 20 -32 43 -32 36 0 51 16 54 57 2 35 -16 63 -43 63 -24 0
-33 18 -18 36 11 14 13 14 21 0 5 -9 16 -16 23 -16 18 0 18 2 3 35 -14 30 -62
35 -77 8z"/>
<path d="M4615 1387 c0 -51 4 -97 8 -103 3 -6 16 -10 29 -8 13 1 33 3 46 3 31
1 26 35 -6 37 -12 1 -29 2 -37 3 -8 0 -15 10 -15 21 0 19 19 26 58 21 6 -1 12
7 12 19 0 19 -19 26 -57 21 -7 -1 -13 7 -13 19 0 19 18 26 56 21 7 -1 14 8 17
19 5 18 0 20 -47 20 l-52 0 1 -93z"/>
<path d="M4747 1465 c-9 -8 -14 -23 -12 -32 2 -10 4 -24 4 -30 1 -7 17 -21 37
-30 40 -19 45 -32 19 -48 -12 -7 -19 -6 -26 8 -13 23 -39 22 -39 -1 0 -17 19
-40 46 -55 16 -9 64 31 64 53 0 32 -22 70 -40 70 -10 0 -23 7 -30 15 -10 12
-9 16 5 22 11 4 22 0 30 -10 10 -14 14 -15 23 -4 9 10 7 19 -4 35 -17 25 -56
29 -77 7z"/>
<path d="M4914 1381 l-1 -99 39 -4 c46 -4 63 4 55 26 -4 9 -16 14 -34 13 l-28
-2 -5 79 c-7 117 -26 108 -26 -13z"/>
<path d="M5074 1380 c0 -76 3 -100 13 -101 69 -5 78 -2 81 20 3 18 -1 22 -20
21 -48 -4 -48 -4 -48 80 0 59 -3 80 -13 80 -10 0 -13 -25 -13 -100z"/>
<path d="M5249 1451 c-22 -37 -20 -132 3 -155 28 -27 65 -20 84 15 13 26 14
33 2 40 -9 6 -16 2 -22 -11 -5 -11 -17 -20 -28 -20 -10 0 -18 1 -18 3 0 1 -4
16 -9 33 -6 22 -4 39 9 63 l17 34 21 -23 c29 -31 46 -17 27 21 -21 40 -63 40
-86 0z"/>
<path d="M5020 1300 c0 -11 6 -20 14 -20 9 0 14 9 13 20 -1 11 -7 20 -14 20
-7 0 -13 -9 -13 -20z"/>
<path d="M5186 1304 c-8 -21 -1 -28 18 -21 9 4 13 13 10 22 -8 20 -20 19 -28
-1z"/>
</g>
</svg>
